<?xml version="1.0" encoding="UTF-8"?>
<svg version="1.1" xmlns="http://www.w3.org/2000/svg" width="354" height="363">
<path d="M0 0 C116.82 0 233.64 0 354 0 C354 119.79 354 239.58 354 363 C237.18 363 120.36 363 0 363 C0 243.21 0 123.42 0 0 Z " fill="#172033" transform="translate(0,0)"/>
<path d="M0 0 C1.09204742 -0.00335861 2.18409485 -0.00671722 3.30923462 -0.01017761 C6.90978136 -0.01965473 10.51028141 -0.0216293 14.11083984 -0.02270508 C16.62560037 -0.0259206 19.14036071 -0.02928489 21.65512085 -0.03279114 C26.92568258 -0.0387748 32.19623256 -0.04067485 37.46679688 -0.04003906 C43.52824691 -0.03943979 49.58960751 -0.0499658 55.65103495 -0.06578273 C61.51309406 -0.08052555 67.37511831 -0.0840246 73.23719406 -0.08342934 C75.71610249 -0.0846036 78.1950117 -0.08899404 80.67390823 -0.0967617 C107.44487171 -0.17277664 129.19378667 2.56186024 149.60302734 21.71166992 C165.34630037 38.05843508 171.10201892 58.03900464 171.09204102 80.22021484 C171.09539963 81.30265472 171.09875824 82.3850946 171.10221863 83.50033569 C171.11168246 87.06297976 171.11366956 90.62557658 171.11474609 94.18823242 C171.11796223 96.67914346 171.12132657 99.17005432 171.12483215 101.66096497 C171.13081229 106.87847328 171.13267324 112.09596506 171.13208008 117.31347656 C171.13141459 123.97301261 171.14562005 130.63242573 171.16285229 137.29194164 C171.17401548 142.43689961 171.17599795 147.58183208 171.17547035 152.72680092 C171.17664437 155.1805896 171.18103341 157.63437908 171.18880272 160.08815575 C171.25670843 183.75302227 169.59945021 202.68513232 154.94677734 222.14526367 C154.40408203 222.87229492 153.86138672 223.59932617 153.30224609 224.34838867 C142.55180525 237.63603818 127.07426138 244.77740341 110.94677734 249.14526367 C110.33121349 249.32293872 109.71564964 249.50061377 109.08143234 249.6836729 C106.66096764 250.20706622 104.45655828 250.28023827 101.97979736 250.29243469 C100.47906425 250.30316765 100.47906425 250.30316765 98.94801331 250.31411743 C97.85609177 250.31680634 96.76417023 250.31949524 95.63916016 250.32226562 C94.4840947 250.32883682 93.32902924 250.33540802 92.13896179 250.34217834 C88.30927463 250.3619145 84.47962682 250.37357894 80.64990234 250.38354492 C79.338601 250.38762045 78.02729965 250.39169598 76.6762619 250.395895 C70.44307791 250.41494904 64.20990567 250.42917198 57.97669816 250.43750697 C50.81873348 250.44723956 43.66108132 250.4734529 36.50322652 250.51400787 C30.94964846 250.54437449 25.39615883 250.55899563 19.84249949 250.56228799 C16.53647486 250.5646179 13.23085599 250.57533985 9.92490387 250.59874916 C-14.19142304 250.75880774 -34.00972672 248.37190917 -53.05322266 232.14526367 C-54.04322266 231.42338867 -55.03322266 230.70151367 -56.05322266 229.95776367 C-69.59262791 218.40613814 -77.61868282 199.49616913 -79.05322266 182.14526367 C-79.1957874 178.40067178 -79.21020207 174.65963326 -79.21435547 170.91259766 C-79.21932037 169.82507706 -79.22428528 168.73755646 -79.22940063 167.61708069 C-79.24392865 164.041833 -79.25080925 160.4666297 -79.25634766 156.89135742 C-79.25917503 155.66186937 -79.26200241 154.43238132 -79.26491547 153.16563606 C-79.27833522 147.32544167 -79.28824056 141.48526314 -79.29211736 135.64505428 C-79.29614267 129.61795473 -79.30838099 123.59101158 -79.33447266 117.56396484 C-79.36217108 111.06315162 -79.37487511 104.5624722 -79.37679291 98.06160164 C-79.37979766 95.59912054 -79.38775146 93.13663984 -79.40097809 90.67419243 C-79.53350411 64.10111814 -76.45734759 41.70718518 -57.48681641 21.48901367 C-41.49265497 6.0853269 -21.75375361 -0.00966146 0 0 Z " fill="#272E59" transform="translate(127.05322265625,57.854736328125)"/>
<path d="M0 0 C6.11670571 4.34120262 7.05606717 10.78469239 8.875 17.75 C9.21523193 18.99700684 9.55546387 20.24401367 9.90600586 21.52880859 C10.60863849 24.10529144 11.30582646 26.68255336 11.99462891 29.26269531 C13.19180374 33.71299943 14.44266817 38.14670848 15.69995117 42.58032227 C18.71363659 53.2182138 21.58432109 63.89224708 24.43237305 74.57543945 C26.52053215 82.35405427 28.75781746 90.07756633 31.13500977 97.77270508 C32.28106438 101.49748236 33.33922677 105.15061178 34 109 C35.97387004 106.03919494 36.68246224 103.98848345 37.5859375 100.58984375 C37.87726563 99.51669922 38.16859375 98.44355469 38.46875 97.33789062 C39.06559438 95.09843788 39.66196076 92.85885768 40.2578125 90.61914062 C45.7712419 70.31859684 45.7712419 70.31859684 54.31030273 64.39819336 C58.99475584 61.96306011 63.88284717 62.52864606 69.0625 62.5625 C70.15111328 62.54251953 71.23972656 62.52253906 72.36132812 62.50195312 C73.40869141 62.50259766 74.45605469 62.50324219 75.53515625 62.50390625 C76.487854 62.50205322 77.44055176 62.5002002 78.42211914 62.49829102 C81.73684598 63.14340548 82.95190536 64.3644041 85 67 C84.93040163 69.85353325 84.48391159 71.37335324 82.74023438 73.63134766 C80.45507593 75.42856963 79.10293377 75.35518739 76.21875 75.3359375 C75.29449219 75.34882813 74.37023437 75.36171875 73.41796875 75.375 C71.47264056 75.375 69.52729669 75.36718712 67.58203125 75.3515625 C62.32359118 75.26009193 62.32359118 75.26009193 58.046875 77.83984375 C56.47280942 82.59140739 55.04785592 87.35277305 53.75 92.1875 C53.44989014 93.27579102 53.14978027 94.36408203 52.84057617 95.48535156 C51.21786984 101.39516105 49.65386733 107.31816534 48.12890625 113.25390625 C47.82436523 114.42477783 47.51982422 115.59564941 47.20605469 116.80200195 C46.62106507 119.05932665 46.04705602 121.31953241 45.48535156 123.58276367 C42.93868852 133.39847548 42.93868852 133.39847548 39 137 C35.5625 138.125 35.5625 138.125 32 138 C26.51411751 133.95373574 25.37966695 128.96000976 23.6875 122.5625 C23.3989917 121.52496582 23.1104834 120.48743164 22.81323242 119.41845703 C21.85570265 115.95070176 20.92572533 112.47637417 20 109 C19.48133127 107.07010985 18.96266036 105.14022027 18.4438324 103.21037292 C16.9115344 97.50632642 15.39726009 91.79785829 13.89453125 86.0859375 C12.32771513 80.16789332 10.66990341 74.28006345 8.9753418 68.39746094 C7.74657095 64.11721686 6.55399526 59.82734647 5.36157227 55.53686523 C2.70535697 45.9815654 0.02372724 36.44680001 -3 27 C-3.32871094 28.25876953 -3.32871094 28.25876953 -3.6640625 29.54296875 C-4.54523275 32.88496813 -5.43823643 36.22331034 -6.34082031 39.55957031 C-6.80118084 41.26392728 -7.25863141 42.96907174 -7.71386719 44.67480469 C-8.46442957 47.47396086 -9.23075554 50.26842612 -10 53.0625 C-10.2367041 53.95412842 -10.4734082 54.84575684 -10.71728516 55.7644043 C-12.96620457 63.8307827 -16.36022968 68.94800084 -23 74 C-27.10500878 76.05250439 -32.36316944 75.27319834 -36.875 75.3125 C-38.52822266 75.35600586 -38.52822266 75.35600586 -40.21484375 75.40039062 C-41.80619141 75.41295898 -41.80619141 75.41295898 -43.4296875 75.42578125 C-44.88737549 75.44765503 -44.88737549 75.44765503 -46.37451172 75.4699707 C-49.75368569 74.86508788 -50.94548605 73.70374036 -53 71 C-52.9375 67.875 -52.9375 67.875 -52 65 C-48.85600051 62.90400034 -48.03424829 62.74661316 -44.4375 62.69140625 C-43.11878906 62.65370117 -43.11878906 62.65370117 -41.7734375 62.61523438 C-39.92454929 62.58007946 -38.07558271 62.54882904 -36.2265625 62.52148438 C-34.90785156 62.4818457 -34.90785156 62.4818457 -33.5625 62.44140625 C-32.75941406 62.42795166 -31.95632812 62.41449707 -31.12890625 62.40063477 C-28.44410429 61.89538706 -27.62868563 61.17208454 -26 59 C-25.05483255 56.88654377 -25.05483255 56.88654377 -24.38671875 54.484375 C-24.11118164 53.57381348 -23.83564453 52.66325195 -23.55175781 51.72509766 C-23.26655273 50.74331543 -22.98134766 49.7615332 -22.6875 48.75 C-22.38553711 47.73599121 -22.08357422 46.72198242 -21.77246094 45.67724609 C-19.34680741 37.43383404 -17.1338915 29.13766812 -15.04174805 20.80371094 C-9.35430956 -1.71813849 -9.35430956 -1.71813849 0 0 Z " fill="#F3F5F8" transform="translate(157,114)"/>
</svg>
